# xmcd
#
# Track frame offsets:
#  150
#  16337
#  24252
#  34650
#  47227
#  61309
#  71300
#  85189
#  97388
#  110187
#  136968
#  144826
#  152985
#  160687
#  172518
#  184963
#
# Disc length: 2626 seconds
#
# Revision: 0
# Processed by: cddbd v1.4PL0 Copyright (c) Steve Scherf et al.
# Submitted via: AltoMP3_Maker 3.0
#
DISCID=ce0a4010
DTITLE=Bob Meehan and Fred Lantz - Acoustic Harmonica and Guitar, Too
DYEAR=1900
DGENRE=
TTITLE0=Jerusalem Ridge
TTITLE1=Blackberry Blossom
TTITLE2=April 22nd Blues
TTITLE3=Salt Creek
TTITLE4=Lonesome Fiddle Blues
TTITLE5=Cheyenne
TTITLE6=L4
TTITLE7=Billy in the Low Ground
TTITLE8=Black Mountain Rag
TTITLE9=Toast Medley
TTITLE10=Red Haired Boy
TTITLE11=Sweet Georgia Brown
TTITLE12=Big Sciota
TTITLE13=E.M.D.
TTITLE14=Big Mon
TTITLE15=Minor Swing
EXTD=
EXTT0=
EXTT1=
EXTT2=
EXTT3=
EXTT4=
EXTT5=
EXTT6=
EXTT7=
EXTT8=
EXTT9=
EXTT10=
EXTT11=
EXTT12=
EXTT13=
EXTT14=
EXTT15=
PLAYORDER=
